<svg t="1632061552192" class="icon" viewBox="0 0 1024 1024" version="1.1" xmlns="http://www.w3.org/2000/svg" p-id="3097" width="128" height="128"><path d="M256 158.5152c-77.0048 47.5136-124.928 135.5776-124.928 229.7856 0 11.4688 9.4208 20.8896 21.2992 20.8896 11.6736 0 21.2992-9.4208 21.2992-20.8896 0-80.0768 40.3456-154.624 105.0624-194.3552 9.8304-6.144 12.9024-19.0464 6.7584-28.8768-6.3488-9.8304-19.456-12.6976-29.4912-6.5536z m349.184 291.4304c-11.264-3.4816-23.1424 2.4576-26.8288 13.312-29.2864 89.088-108.3392 148.8896-196.1984 148.8896-11.6736 0-21.2992 9.4208-21.2992 20.6848 0 11.6736 9.4208 20.8896 21.2992 20.8896 106.496 0 201.3184-71.2704 236.7488-177.5616 3.4816-10.8544-2.4576-22.7328-13.7216-26.2144z m276.0704-83.1488c-11.4688-2.6624-22.7328 4.3008-25.3952 15.5648-14.336 60.416-54.8864 111.0016-108.3392 134.9632-10.6496 4.7104-15.5648 17.2032-10.6496 27.648 3.6864 7.7824 11.264 12.288 19.456 12.288 2.8672 0 5.9392-0.4096 8.8064-1.8432 65.536-29.4912 115.0976-90.5216 132.096-163.6352 2.4576-11.264-4.5056-22.3232-15.9744-24.9856z m106.9056-7.5776c0-177.152-136.3968-321.3312-303.9232-321.3312-45.056 0-89.7024 10.6496-130.2528 31.1296-50.7904-30.72-109.1584-48.5376-171.6224-48.5376C191.2832 20.48 35.84 185.1392 35.84 387.2768c0 172.032 112.64 316.416 263.9872 355.7376l-20.6848 25.3952c-5.12 6.3488-6.144 14.9504-2.6624 22.1184 3.4816 7.168 10.8544 11.6736 19.0464 11.6736h55.5008c-23.3472 47.104 1.024 73.9328 19.456 94.0032 7.3728 8.192 14.1312 15.5648 18.432 24.3712 5.12 10.24 6.3488 18.6368 3.8912 25.6-3.6864 9.216-14.5408 15.5648-18.6368 16.9984-10.8544 4.3008-16.1792 16.384-12.0832 27.0336 3.072 8.192 11.264 13.312 19.6608 13.312 2.4576 0 5.12-0.4096 7.5776-1.4336 3.2768-1.2288 31.3344-12.6976 42.5984-40.96 4.9152-12.4928 7.9872-32.9728-5.3248-59.392-6.7584-13.7216-16.384-24.1664-24.7808-33.3824-19.456-21.504-27.4432-30.1056-2.6624-64.3072 0.4096-0.6144 0.4096-1.2288 0.8192-1.8432h38.7072c7.9872 0 15.36-4.3008 18.8416-11.4688 3.6864-6.9632 3.072-15.5648-1.6384-21.7088l-15.1552-20.6848c61.2352-11.264 117.1456-39.1168 163.0208-79.4624 6.7584 2.048 13.9264 3.8912 21.0944 5.3248l-9.0112 9.6256c-5.5296 6.3488-6.7584 14.9504-3.4816 22.528 3.2768 7.3728 11.0592 12.288 19.2512 12.288h31.3344c-28.4672 56.32-5.5296 86.016 13.5168 110.592 6.9632 9.216 13.9264 17.8176 18.2272 27.8528 15.36 35.6352-7.168 49.7664-14.336 53.248-10.6496 4.9152-15.36 17.2032-10.4448 27.648 3.4816 7.7824 11.264 12.288 19.2512 12.288 2.8672 0 5.9392-0.8192 8.6016-1.8432 19.2512-8.6016 63.0784-44.6464 35.84-107.52-6.5536-14.9504-15.5648-26.8288-23.552-37.0688-18.2272-23.552-28.0576-36.4544-2.8672-78.0288 1.4336-2.2528 2.048-4.7104 2.4576-7.168h24.1664c8.192 0 15.36-4.5056 19.0464-11.4688 3.8912-6.9632 2.8672-15.5648-1.8432-21.7088l-8.3968-10.8544c139.8784-29.2864 245.5552-159.3344 245.5552-315.392zM339.968 760.6272l6.7584-8.6016c11.6736 1.2288 23.552 1.8432 35.4304 1.8432 3.4816 0 6.7584-0.4096 10.24-0.4096l5.12 6.9632-57.5488 0.2048z m254.5664-172.6464c-0.4096 0.4096-1.024 1.024-1.2288 1.6384-5.9392 7.168-12.288 13.9264-18.8416 20.48-48.7424 48.5376-113.4592 78.848-184.5248 80.896h-0.2048l-34.4064-1.6384c-1.4336-0.2048-2.4576 0-3.8912 0.2048-141.312-16.5888-251.904-145.8176-251.904-302.08 0-167.7312 126.976-304.128 283.0336-304.128 56.32 0 108.7488 18.0224 152.9856 48.5376 19.0464 13.312 36.2496 28.672 51.6096 45.8752 2.048 2.4576 4.3008 4.9152 6.3488 7.5776 5.12 5.9392 9.8304 12.288 14.336 18.8416 2.2528 3.072 4.3008 6.144 6.5536 9.4208 4.7104 7.3728 9.216 15.1552 13.5168 22.7328 1.024 2.048 2.2528 4.096 3.2768 6.3488 4.9152 9.6256 9.216 19.8656 13.312 29.9008 1.2288 3.4816 2.4576 7.168 3.8912 10.8544 2.2528 7.3728 4.7104 14.7456 6.5536 22.1184 1.2288 3.8912 1.8432 7.9872 2.8672 12.0832 1.6384 7.7824 3.072 15.7696 4.3008 23.7568 0.4096 3.6864 1.2288 7.168 1.4336 10.8544 1.2288 11.6736 2.048 23.552 2.048 35.4304-0.2048 73.3184-25.8048 144.9984-71.0656 200.2944z m89.4976 29.9008c-10.4448 0-20.6848-0.8192-31.1296-2.048 0.4096-0.4096 0.6144-0.8192 1.024-1.2288 17.408-23.3472 32.5632-49.152 44.2368-76.8 0.2048-0.2048 0.2048-0.6144 0.4096-0.8192 3.072-7.7824 6.144-15.7696 9.0112-23.7568 0.8192-2.4576 1.6384-4.9152 2.4576-7.168 2.2528-7.168 4.096-14.1312 6.144-21.504 1.024-3.8912 1.8432-7.7824 2.8672-11.6736 1.4336-6.3488 2.8672-12.6976 3.8912-19.0464 1.2288-5.7344 1.8432-11.4688 2.4576-17.408 0.8192-5.12 1.2288-10.0352 1.8432-14.9504 1.2288-11.264 1.6384-22.528 1.6384-33.9968 0-13.1072-0.8192-25.8048-1.8432-38.5024-0.4096-4.096-1.2288-8.192-1.6384-12.288-1.2288-8.3968-2.2528-16.7936-3.8912-25.1904-1.024-5.12-2.4576-10.24-3.6864-15.36-1.6384-6.9632-3.2768-13.9264-5.5296-20.6848-1.6384-5.7344-3.8912-11.264-5.9392-16.9984-2.048-5.9392-4.096-11.6736-6.5536-17.408-2.4576-5.9392-5.3248-11.6736-7.9872-17.408-2.4576-5.12-4.9152-10.24-7.5776-15.36-3.072-5.7344-6.3488-11.264-9.8304-16.9984-2.8672-4.9152-5.9392-9.6256-8.8064-14.1312-3.4816-5.3248-7.168-10.4448-11.0592-15.5648-3.6864-4.7104-7.168-9.4208-11.0592-13.9264-3.6864-4.5056-7.3728-9.0112-11.4688-13.312-4.5056-5.12-9.4208-10.0352-14.1312-14.7456-2.2528-2.048-4.096-4.7104-6.3488-6.7584C635.0848 104.448 659.6608 100.352 684.032 100.352c132.5056 0 240.4352 116.1216 240.4352 258.6624-0.2048 142.9504-107.9296 258.8672-240.4352 258.8672z" p-id="3098" fill="#bfcbd9"></path></svg>