<svg t="1632281742690" class="icon" viewBox="0 0 1024 1024" version="1.1" xmlns="http://www.w3.org/2000/svg" p-id="3402" width="128" height="128"><path d="M930.816 170.496c-20.48-20.48-48.64-32.768-79.36-32.768H718.848c-4.096-12.288-10.752-23.552-19.968-32.768-14.336-14.336-34.304-23.04-55.808-23.04h-24.576c-5.632-19.968-16.384-37.888-31.744-51.712-42.496-38.912-107.52-38.912-150.016 0-15.36 13.824-26.112 31.744-31.744 51.712h-24.576c-20.992 0-40.96 8.192-55.808 23.04-9.216 9.216-15.872 20.48-19.968 32.768H172.544c-61.952 0-112.128 50.688-112.128 112.128V911.36c0 29.696 11.776 58.368 32.768 79.36 20.992 20.992 49.664 32.768 79.36 32.768h679.424c61.952 0 112.128-50.688 112.128-112.128V249.856c0-30.72-12.8-58.88-33.28-79.36z m-584.192-9.728c0-8.704 3.584-17.408 9.728-24.064 6.144-6.144 14.336-9.728 24.064-9.728h64.512l1.536-20.992C448 89.6 455.168 74.24 467.456 63.488c25.088-23.04 63.488-23.04 88.576 0 12.288 11.264 19.456 26.112 20.992 42.496l1.536 20.992h64.512c8.704 0 17.408 3.584 24.064 9.728 6.144 6.144 9.728 14.336 9.728 24.064v72.192c0 9.216-3.584 17.92-9.728 24.064-6.144 6.144-14.336 9.728-24.064 9.728H380.416c-9.216 0-17.92-3.584-24.064-9.728-6.144-6.144-9.728-14.336-9.728-24.064v-72.192zM918.528 911.36c0 36.864-30.208 66.56-67.072 67.072H172.544c-18.432 0-35.328-7.68-47.104-19.456-12.288-12.288-19.456-28.672-19.456-47.104V249.856c0-36.864 30.208-66.56 67.072-67.072H302.08v49.664c0 20.992 8.192 40.96 23.04 55.808 14.848 14.848 34.816 23.04 55.808 23.04h262.656c20.992 0 40.96-8.192 55.808-23.04 14.848-14.848 23.04-34.816 23.04-55.808v-49.664h129.024c17.92 0 34.816 7.168 47.104 19.456 12.288 12.288 19.456 28.672 19.456 47.104V911.36z" p-id="3403" fill="#bfcbd9"></path><path d="M264.704 775.168h494.08c32.256 0 32.256 45.568 0 45.568h-494.08c-32.256 0-32.256-45.568 0-45.568z m0-163.328h494.08c32.256 0 32.256 45.568 0 45.568h-494.08c-32.256 0-32.256-45.568 0-45.568z m0-163.328h494.08c32.256 0 32.256 45.568 0 45.568h-494.08c-32.256 0-32.256-45.568 0-45.568z" p-id="3404" fill="#bfcbd9"></path></svg>