<svg t="1632281664480" class="icon" viewBox="0 0 1024 1024" version="1.1" xmlns="http://www.w3.org/2000/svg" p-id="2470" width="128" height="128"><path d="M864.256 181.76v372.736h-54.272V181.76H214.016v658.432h394.24v54.784h-394.24c-30.208 0-54.272-24.576-54.272-54.784V181.76c0-30.208 24.064-54.784 54.272-54.784h596.48c29.696 0.512 54.272 25.088 53.76 54.784z" p-id="2471" fill="#bfcbd9"></path><path d="M268.288 456.192h379.392v54.784H268.288zM268.288 291.84h379.392v54.784H268.288zM268.288 620.544h216.576v54.784H268.288zM838.656 757.76h-113.152v113.152c0 14.336-11.776 26.112-25.6 26.112-14.336 0-26.112-11.776-26.112-25.6V757.76h-113.152c-14.336 0-25.6-11.776-25.6-25.6s11.776-25.6 25.6-25.6h113.152v-113.152c0-14.336 11.776-25.6 26.112-25.6s25.6 11.776 25.6 25.6V706.56h113.152c14.336 0 25.6 11.776 25.6 25.6 0 14.336-11.264 25.6-25.6 25.6" p-id="2472" fill="#bfcbd9"></path></svg>