<svg t="1632061594125" class="icon" viewBox="0 0 1024 1024" version="1.1" xmlns="http://www.w3.org/2000/svg" p-id="3377" width="128" height="128"><path d="M539.306667 679.253333c215.04 64.853333 252.586667 266.24 252.586666 276.48 0 3.413333 3.413333 30.72-27.306666 34.133334-34.133333 6.826667-51.2-30.72-51.2-34.133334-10.24-23.893333-68.266667-235.52-300.373334-232.106666h-17.066666c-133.12 3.413333-245.76 109.226667-262.826667 238.933333 0 13.653333-10.24 30.72-23.893333 30.72-23.893333 6.826667-44.373333-10.24-44.373334-30.72v-3.413333c0-6.826667 0-10.24 3.413334-10.24 17.066667-119.466667 95.573333-218.453333 201.386666-266.24-61.44-44.373333-102.4-112.64-102.4-194.56 0-133.12 109.226667-238.933333 238.933334-238.933334 133.12 0 238.933333 109.226667 238.933333 238.933334 0 71.68-40.96 146.773333-105.813333 191.146666zM406.186667 310.613333c-92.16 0-170.666667 75.093333-170.666667 170.666667 0 92.16 75.093333 170.666667 170.666667 170.666667 92.16 0 170.666667-75.093333 170.666666-170.666667s-78.506667-170.666667-170.666666-170.666667z m0 0" fill="#bfcbd9" p-id="3378"></path><path d="M959.146667 870.4c0-10.24-37.546667-211.626667-252.586667-276.48 126.293333-85.333333 143.36-300.373333-20.48-395.946667-47.786667-27.306667-98.986667-40.96-150.186667-37.546666-47.786667 3.413333-81.92 23.893333-109.226666 44.373333-3.413333 0 0 6.826667 3.413333 6.826667 20.48 0 58.026667 10.24 71.68 23.893333 3.413333 3.413333 6.826667 3.413333 10.24 0 20.48-10.24 30.72-10.24 54.613333-10.24 88.746667 0 167.253333 64.853333 177.493334 153.6 6.826667 61.44-20.48 116.053333-68.266667 153.6-10.24 40.96-27.306667 78.506667-58.026667 109.226667 201.386667 17.066667 252.586667 208.213333 262.826667 228.693333 0 3.413333 17.066667 40.96 51.2 34.133333 30.72-3.413333 27.306667-30.72 27.306667-34.133333z" fill="#bfcbd9" p-id="3379"></path></svg>