<svg t="1632061639385" class="icon" viewBox="0 0 1024 1024" version="1.1" xmlns="http://www.w3.org/2000/svg" p-id="3612" width="128" height="128"><path d="M281.6 838.4c0 19.2 19.2 38.4 38.4 38.4l608 0c19.2 0 38.4-19.2 38.4-38.4l0-25.6c0-19.2-19.2-38.4-38.4-38.4l-608 0c-19.2 0-38.4 19.2-38.4 38.4L281.6 838.4zM140.8 748.8c-38.4 0-76.8 32-76.8 76.8C64 864 96 896 140.8 896c38.4 0 76.8-32 76.8-76.8C211.2 780.8 179.2 748.8 140.8 748.8zM281.6 524.8c0 19.2 19.2 38.4 38.4 38.4l608 0c19.2 0 38.4-19.2 38.4-38.4L966.4 499.2c0-19.2-19.2-38.4-38.4-38.4L320 460.8c-19.2 0-38.4 19.2-38.4 38.4L281.6 524.8zM140.8 435.2C96 435.2 64 473.6 64 512c0 38.4 32 76.8 76.8 76.8 38.4 0 76.8-32 76.8-76.8C211.2 473.6 179.2 435.2 140.8 435.2zM320 153.6c-19.2 0-38.4 19.2-38.4 38.4l0 25.6c0 19.2 19.2 38.4 38.4 38.4l608 0c19.2 0 38.4-19.2 38.4-38.4L966.4 185.6c0-19.2-19.2-38.4-38.4-38.4L320 147.2zM140.8 128C96 128 64 160 64 198.4c0 38.4 32 76.8 76.8 76.8 38.4 0 76.8-32 76.8-76.8C211.2 160 179.2 128 140.8 128z" p-id="3613" fill="#bfcbd9"></path></svg>