<svg t="1632061677608" class="icon" viewBox="0 0 1024 1024" version="1.1" xmlns="http://www.w3.org/2000/svg" p-id="3850" width="128" height="128"><path d="M923.752 469.81h-3.64c-17.321 0-36.424 12.5-39.896 30.375l-19.218 99.019-34.237 176.392-11.288 58.156-2.838 14.622-0.523 2.688c-2.38 12.265-0.16 24.803-1.67 37.238l1.477-11a113.313 113.313 0 0 1-7.488 27.887l4.17-9.884a113.672 113.672 0 0 1-13.78 23.816l6.47-8.373a113.677 113.677 0 0 1-20.197 20.206l8.375-6.471a113.454 113.454 0 0 1-24.226 13.962l9.884-4.17a113.471 113.471 0 0 1-27.056 7.275l10.998-1.477c-10.809 1.363-21.802 0.942-32.676 0.942H292.176c-8.61 0-17.124 0.14-25.702-0.942l10.998 1.477a113.38 113.38 0 0 1-27.058-7.275l9.884 4.17a113.442 113.442 0 0 1-24.224-13.962l8.373 6.47a113.608 113.608 0 0 1-20.195-20.205l6.47 8.373a113.628 113.628 0 0 1-13.78-23.816l4.17 9.884a113.317 113.317 0 0 1-7.49-27.887l1.48 11c-1.515-12.45 0.7-24.996-1.683-37.28l-0.587-3.027-3.192-16.453-12.54-64.609-34.322-176.841-17.45-89.907c-3.47-17.875-22.573-30.375-39.895-30.375-4.29 0-8.54 0.009-12.81-0.507l10.998 1.477a63.228 63.228 0 0 1-14.53-3.87l9.883 4.172a63.124 63.124 0 0 1-13.758-7.984l8.374 6.47a64.01 64.01 0 0 1-10.318-10.319l6.469 8.375a63.112 63.112 0 0 1-7.983-13.757l4.17 9.883a63.237 63.237 0 0 1-3.868-14.528l1.478 10.998a64.215 64.215 0 0 1 0-15.513l-1.478 10.998a63.253 63.253 0 0 1 3.868-14.53l-4.17 9.884a63.082 63.082 0 0 1 7.983-13.76l-6.47 8.376a64.01 64.01 0 0 1 10.32-10.32l-8.375 6.47a63.202 63.202 0 0 1 13.758-7.985l-9.883 4.171a63.253 63.253 0 0 1 14.53-3.869l-10.998 1.477c6.541-0.79 13.237-0.507 19.814-0.507h792.252c8.853 0 18.01-0.557 26.82 0.507l-10.997-1.477a63.228 63.228 0 0 1 14.53 3.869l-9.884-4.17a63.131 63.131 0 0 1 13.76 7.984l-8.376-6.47a64.02 64.02 0 0 1 10.32 10.32c-2.157-2.79-4.312-5.583-6.469-8.375a63.202 63.202 0 0 1 7.985 13.759l-4.17-9.884a63.228 63.228 0 0 1 3.868 14.53l-1.478-10.998a64.215 64.215 0 0 1 0 15.513l1.478-10.998a63.214 63.214 0 0 1-3.868 14.528l4.17-9.883a63.079 63.079 0 0 1-7.985 13.757l6.47-8.375a63.95 63.95 0 0 1-10.32 10.319l8.374-6.47a63.124 63.124 0 0 1-13.759 7.984l9.883-4.171a63.275 63.275 0 0 1-14.53 3.869l10.999-1.477a70.291 70.291 0 0 1-7.758 0.509c-22.55 0.248-41.374 18.634-41.374 41.373 0 22.368 18.818 41.622 41.374 41.374 17.364-0.19 33.432-4.606 48.74-12.663 14.746-7.762 26.106-20.006 35.511-33.468 9.903-14.171 13.47-30.71 15.498-47.483 2.091-17.297-3.05-34-9.673-49.653-11.4-26.95-39.14-48.349-67.553-54.323a120.596 120.596 0 0 0-24.77-2.608H107.732c-20.42 0-40.202 3.4-58.228 13.875-14.293 8.306-25.876 20.462-34.713 34.307C5.565 414.997 1.701 431.69 0.41 448.55c-1.335 17.375 3.909 33.782 10.884 49.346 6.838 15.257 19.148 26.738 32.157 36.653 17.665 13.462 40.234 18.01 61.982 18.01l-39.895-30.374 19.217 99.018 34.233 176.393 14.67 75.583-1.478-11c-3.374 31.246 5.18 64.6 21.801 91.134 8.233 13.138 18.63 25.546 30.785 35.243 7.03 5.61 14.071 11.035 21.86 15.524 8.167 4.706 17.125 8.303 25.909 11.597 19.327 7.248 39.94 8.085 60.307 8.085h441.497c20.836 0 41.784-1.466 61.423-9.14 8.348-3.26 16.656-6.798 24.434-11.278 7.75-4.464 14.78-10.157 21.744-15.713 12.15-9.694 22.242-22.534 30.44-35.619 16.27-25.97 24.276-59.347 20.982-89.831l-1.477 11c6.404-33.007 12.812-66.013 19.218-99.02l34.237-176.393 14.67-75.582-39.896 30.375h3.639c22.553 0 41.373-18.82 41.373-41.373s-18.82-41.377-41.373-41.377zM806.016 209.8l-88.289-77.925c-30.573-26.986-61.503-53.627-91.476-81.27-21.997-20.288-47.657-36.828-76.606-45.128-26.201-7.51-55.354-6.95-81.277 1.374-29.146 9.356-54.585 26.889-76.48 47.999-3.06 2.95-6.225 5.746-9.41 8.564l-111.805 98.903-53.997 47.766c-16.9 14.95-15.21 43.301 0 58.51a41.539 41.539 0 0 0 29.257 12.118c11.49 0 20.843-4.677 29.256-12.117l88.061-77.899c30.301-26.804 61.184-53.084 90.721-80.725 4.218-3.948 8.639-7.67 13.185-11.23l-8.373 6.469c10.159-7.811 21.05-14.525 32.864-19.535l-9.884 4.171c8.73-3.588 17.76-6.157 27.109-7.493l-10.998 1.477a103.27 103.27 0 0 1 25.963-0.107l-10.998-1.48c9.781 1.318 19.224 3.987 28.336 7.765l-9.883-4.171c11.804 5.047 22.687 11.783 32.842 19.61l-8.374-6.47c8.006 6.279 15.137 13.456 22.744 20.171l16.562 14.616 57.591 50.832 94.523 83.425 0.329 0.29c8.425 7.435 17.754 12.116 29.254 12.116a41.535 41.535 0 0 0 29.255-12.117c15.197-15.195 16.916-43.579-0.002-58.509z" p-id="3851" fill="#bfcbd9"></path><path d="M283.685 637.221h454.262c22.553 0 41.373-18.82 41.373-41.373s-18.82-41.373-41.373-41.373H283.683c-22.553 0-41.373 18.82-41.373 41.373s18.82 41.373 41.375 41.373z m60.29 177.088h333.657c22.554 0 41.374-18.82 41.374-41.373s-18.82-41.374-41.374-41.374H343.973c-22.553 0-41.373 18.82-41.373 41.374s18.822 41.373 41.375 41.373z" p-id="3852" fill="#bfcbd9"></path></svg>