<svg t="1632061755994" class="icon" viewBox="0 0 1081 1024" version="1.1" xmlns="http://www.w3.org/2000/svg" p-id="4370" width="128" height="128"><path d="M520.332642 860.168319c-23.336899 12.347234-224.061615 121.281453-230.822078 121.281453-16.067836 0-113.308175-52.73787-133.022279-62.596879l-65.202474-32.601237c-21.341623-10.672768-52.166674-18.012252-52.166674-45.644861 0-34.925146-3.71669-263.423315 3.188528-278.497426 4.550011-9.933342-1.224551-4.632169 12.202479-11.275263l246.72951-105.374021v-293.422869c19.225066-10.171993 244.335179-109.544538 250.391428-109.544538 26.509778 0 157.051656 68.136703 192.986177 84.78356 33.191995 15.383183 53.485121 15.269726 53.48512 40.410198v281.685954c25.124822 0 95.303748 35.742818 119.982568 48.250457l118.668032 53.469471v309.072089c-40.339776 21.345536-82.612231 39.85465-121.453593 62.424737-16.357347 9.506901-109.931856 58.856715-125.021617 58.856715-5.993651 0-105.698742-55.539081-117.541289-62.420825-24.999628-14.5303-113.284701-53.328628-113.284701-70.597542v-273.861344c-48.641687 0-39.123049-34.162247-39.123049 117.369147l0.003912 168.233024zM258.212125 418.077863c-60.093004 28.833687-147.80688 61.943524-212.641597 92.522099C20.089686 522.622475 0 534.703673 0 570.657755v277.773649c0 51.955409 61.37624 67.858929 129.106062 101.719928 187.947128 93.973564 131.160022 91.735726 252.934426 29.936958 12.574148-6.380969 21.818925-10.179817 33.911859-16.948105 11.834722-6.61962 18.055287-11.005314 30.019116-16.928544 10.211116-5.062523 21.282939-10.058536 31.153684-15.793975 20.007527-11.631283 43.919535-22.413595 62.76902-35.038603l206.096311 110.800388c28.297701 15.977853 44.326415 23.818112 77.013722 8.000664 48.524318-23.485566 92.412555-46.392112 140.72952-70.550595 25.042664-12.519376 45.410123-22.527052 70.484086-35.144235 24.076324-12.124233 45.578352-25.555176 45.578352-60.053881 0-54.674461 7.726802-288.48554-8.321472-316.395923-12.898869-22.425332-205.814625-102.82711-234.241433-117.869923v-172.141416c0-73.962125 12.797149-109.607135-40.359337-135.694384-39.439946-19.354172-76.360367-37.425109-117.259604-54.877901C502.605989-24.090839 618.238073-24.427297 304.533815 104.467501 249.401614 127.119746 258.212125 171.160563 258.212125 238.111837v179.966026z" p-id="4371" fill="#bfcbd9"></path><path d="M117.369148 660.640768c37.906322 20.0623 75.495748 38.5988 113.45293 58.684574v156.492197c-37.914147-20.0623-75.773522-38.743556-113.45293-58.684574v-156.492197z m-43.039267 183.878331c20.25009 4.71824 76.509035 36.298365 97.811536 46.947659 19.272014 9.639919 82.643529 45.363176 101.719927 46.94766v-242.562906c-26.983167-18.067024-67.311206-35.609799-97.811535-50.859964-33.645822-16.822911-68.567056-33.321101-101.719928-50.859964v250.387515zM633.789485 664.553073l104.904544 52.319254 0.727689 155.032907-105.64397-50.828666 0.011737-156.523495z m-39.123049 183.878331l187.790636 93.895318v-250.387514l-187.790636-93.895319v250.387515zM375.581272 257.673361c15.70008 10.512363 99.572073 54.537531 117.365236 58.684574v156.492197l-116.668845-56.172874L375.581272 257.673361z m-39.126961 183.878332l146.120676 72.972311c17.593635 8.92788 30.050414 20.30095 49.49457 24.835312v-250.387515L337.189824 193.609368l-0.735513 247.942325z" p-id="4372" fill="#bfcbd9"></path></svg>