<svg t="1632286433945" class="icon" viewBox="0 0 1024 1024" version="1.1" xmlns="http://www.w3.org/2000/svg" p-id="21592" width="128" height="128"><path d="M414.72 865.28H300.393412c-77.673412-4.3008-107.779012-45.2608-115.2-116.0192v-119.0912c0-14.588988-21.714824-27.286588-34.563012-26.7264-19.6608 0.873412-34.7136 12.131388-34.7136 26.7264v119.247812c0 102.134965 82.799435 184.928376 184.9344 184.928376h114.4832c14.588988 0 32.6656-15.36 32.4608-36.707388-0.150588-16.534588-18.3296-32.3584-33.0752-32.3584z m0.6144-746.496H300.8512c-102.134965 0-184.9344 82.799435-184.9344 184.9344v119.296c0 14.588988 15.0528 25.6 34.7136 26.672188 12.848188 0.566212 34.556988-12.077176 34.556988-26.672188V303.7184c7.427012-70.7584 37.532612-111.7184 115.206024-115.964988h114.326588c14.588988 0 32.768-15.721412 32.924612-32.207812 0.355388-21.558212-17.564612-36.7616-32.310212-36.7616z m483.177412 485.376c-12.854212-0.512-34.563012 12.131388-34.563012 26.7264v119.296c-7.427012 70.7584-37.526588 111.7184-115.2 115.964988h-114.4832c-14.588988 0-32.768 15.6672-32.924612 32.207812 0 21.558212 17.871812 36.7616 32.466824 36.7616h114.4832c102.134965 0 184.928376-82.799435 184.928376-184.9344v-119.296c0-14.6432-15.0528-25.9072-34.707576-26.7264z m-19.456-430.592a184.982588 184.982588 0 0 0-130.770824-54.1696h-114.477176c-14.595012 0-32.6656 15.36-32.466824 36.7616 0 16.534588 18.335624 32.201788 32.924612 32.201788h114.4832c77.667388 4.252612 107.52 45.212612 115.2 115.971012v119.296c0 14.588988 21.7088 27.286588 34.563012 26.7264 19.654776-0.873412 34.707576-12.137412 34.707576-26.7264V304.3328a184.832 184.832 0 0 0-54.1696-130.7648z" p-id="21593" fill="#333333"></path></svg>