<svg t="1632061733007" class="icon" viewBox="0 0 1024 1024" version="1.1" xmlns="http://www.w3.org/2000/svg" p-id="4131" width="128" height="128"><path d="M260.427371 412.582753c31.209402-44.609854 97.862639-156.025696 121.497486-222.620318l51.783877 0c-15.977701 52.37002-48.494377 113.947798-63.657695 141.969831l0 368.174497-45.918016 0L324.133023 407.160938c-17.34803 28.690767-43.194232 66.547553-63.501391 88.878679C260.627192 496.039617 260.427371 445.188239 260.427371 412.582753L260.427371 412.582753zM591.145612 568.583582c-34.697836 40.159614-76.204688 86.111378-129.667064 131.995646-2.923606-1.440489-36.371893-33.649885-39.246653-35.050409 50.583174-38.685378 91.337811-81.313894 127.501002-125.763002L591.145612 568.583582 591.145612 568.583582zM451.79033 318.434124l64.472966 0L516.263296 221.473789l46.850515 0 0 96.961223 98.359971 0L661.473782 221.473789l46.903801 0 0 96.961223 63.935669 0 0 46.079649-63.935669 0 0 100.531361 100.684113 0 0 45.590309L415.301209 510.636332l0-45.590309 100.962087 0L516.263296 364.513773l-64.472966 0L451.79033 318.434124 451.79033 318.434124 451.79033 318.434124zM563.11381 362.736697l0 100.531361 98.359971 0L661.473782 362.736697 563.11381 362.736697 563.11381 362.736697zM629.2111 568.760313l37.943819-32.624136c28.901245 24.386175 101.645031 96.491421 135.747844 128.295846l-36.973133 36.148093C731.231795 664.758842 682.678804 617.498915 629.2111 568.760313L629.2111 568.760313zM629.2111 568.760313" p-id="4132" fill="#bfcbd9"></path><path d="M969.840471 453.250357C969.840471 202.929496 767.165858 0 517.146949 0 267.128041 0 64.448099 202.929496 64.448099 453.250357c0 131.088014 55.585808 249.178771 144.43962 331.937594l-69.044874 119.58542 137.246058-0.263764L344.260787 1022.791304l73.475575-127.261217c31.990037 7.178464 65.258929 10.970626 99.410587 10.970626 34.331941 0 67.771347-3.832126 99.9168-11.082526l73.539518 127.374005 67.171883-118.281698 137.246058 0.263764-69.244695-119.936217C914.416296 702.096981 969.840471 584.1572 969.840471 453.250357L969.840471 453.250357zM344.542313 943.624822l-33.243137-58.54405-11.331192-19.959026-22.956344 0.043517-68.9534 0.135878 31.276897-54.170186c41.267956 32.160551 88.239251 57.32292 139.150132 73.705592L344.542313 943.624822 344.542313 943.624822zM517.146949 867.161698c-227.92668 0-413.359835-185.682709-413.359835-413.911341 0-228.233961 185.434043-413.911341 413.359835-413.911341 227.924904 0 413.353618 185.677381 413.353618 413.911341C930.501456 681.482541 745.071853 867.161698 517.146949 867.161698L517.146949 867.161698zM826.805815 865.301141l-68.951624-0.135878-22.952791-0.043517-11.331192 19.959026-33.248466 58.54405-34.029101-58.938363c50.885126-16.441286 97.828003-41.6525 139.061323-73.861896L826.805815 865.301141 826.805815 865.301141zM826.805815 865.301141" p-id="4133" fill="#bfcbd9"></path></svg>